<svg width="41" height="29" viewBox="0 0 41 29" fill="none" xmlns="http://www.w3.org/2000/svg">
<rect x="0.512512" width="40.25" height="3" rx="1.5" fill="#2A94E2"/>
<path d="M0.512512 14.5C0.512512 13.6716 1.18409 13 2.01251 13H29.2C30.0284 13 30.7 13.6716 30.7 14.5V14.5C30.7 15.3284 30.0284 16 29.2 16H2.01251C1.18408 16 0.512512 15.3284 0.512512 14.5V14.5Z" fill="#2A94E2"/>
<path d="M0.512512 27.5C0.512512 26.6716 1.18409 26 2.01251 26H19.1375C19.9659 26 20.6375 26.6716 20.6375 27.5V27.5C20.6375 28.3284 19.9659 29 19.1375 29H2.01251C1.18409 29 0.512512 28.3284 0.512512 27.5V27.5Z" fill="#2A94E2"/>
</svg>
